<svg width="105" height="105" viewBox="0 0 105 105" fill="none" xmlns="http://www.w3.org/2000/svg">
<path d="M26.1723 0.276367C25.2274 2.20817 23.1425 3.74157 21.0566 3.74157C23.8773 3.74157 26.6979 6.544 26.6979 9.34643C26.6979 6.544 29.5185 3.74157 32.3392 3.74157C30.2533 3.74157 28.1686 2.20817 27.2235 0.276367H26.1723ZM94.3932 3.54587C94.3932 5.41415 92.5128 7.28244 90.6324 7.28244C92.5128 7.28244 94.3932 9.15072 94.3932 11.019C94.3932 9.15072 96.2736 7.28244 98.1541 7.28244C96.2736 7.28244 94.3932 5.41415 94.3932 3.54587ZM77.4694 12.8873C77.4694 15.6897 74.6487 18.4922 71.8281 18.4922C74.6487 18.4922 77.4694 21.2946 77.4694 24.097C77.4694 21.2946 80.29 18.4922 83.1107 18.4922C80.29 18.4922 77.4694 15.6897 77.4694 12.8873ZM0.842041 20.8434V94.6944C22.9394 93.7602 47.8957 93.3737 71.9205 86.7953C81.9989 84.2462 89.9279 81.2493 95.505 77.8434C101.083 74.4377 104.589 70.4349 104.589 65.7831C104.568 63.7691 103.741 61.6537 102.706 60.061C101.922 58.9085 100.91 57.8051 99.7019 56.7509C100.061 55.8742 100.246 54.9363 100.244 53.9896C100.244 49.9662 97.007 46.75 92.9575 46.75C88.9082 46.75 85.6709 49.9662 85.6709 53.9896C85.6709 58.0127 88.9082 61.2292 92.9575 61.2292C94.4651 61.2292 95.8595 60.7831 97.0169 60.0157C98.7337 61.6056 100.281 63.5921 100.358 65.7831C100.358 68.2483 98.2756 71.2175 93.2896 74.2619C88.3037 77.3065 80.6955 80.2381 70.8764 82.7217C49.263 88.0835 22.9476 90.0405 3.52165 90.4538C9.20594 89.3429 14.399 86.8868 18.7538 83.4324C25.0763 83.0176 30.7251 82.5185 36.7229 81.7794C36.0953 80.3231 35.7928 79.0353 35.8939 77.6435C31.6218 78.1374 27.2075 78.587 23.5122 78.8812C28.8681 72.7065 32.1041 64.6636 32.1041 55.8579C32.1041 37.7799 18.4687 22.9167 0.842041 20.8434ZM32.2414 38.4146C32.9525 39.8433 33.5753 41.3137 34.1063 42.8177C47.8075 44.1451 60.3758 46.1885 70.8764 48.8446C74.8239 49.8427 78.4068 50.9144 81.6129 52.0358C81.8568 50.6403 82.3609 49.3023 83.0994 48.0907C79.7334 46.9125 76.0071 45.8044 71.9209 44.7705C60.5585 41.8966 46.9865 39.7448 32.2416 38.4141L32.2414 38.4146ZM35.2797 46.8025C35.6182 48.2331 35.8756 49.6814 36.0507 51.1407C42.3214 51.9188 48.0633 52.8695 53.0977 53.9674C60.3039 55.5391 66.0937 57.4191 69.9058 59.3845C71.8121 60.367 73.2119 61.3751 74.0442 62.2621C74.8763 63.1491 75.1188 63.8119 75.1188 64.3821C75.1188 64.9524 74.8767 65.6152 74.0442 66.5022C73.2121 67.3892 71.8119 68.3973 69.9058 69.3798C66.094 71.3452 60.3039 73.2254 53.0977 74.7969C52.3211 74.9662 51.543 75.1285 50.7636 75.2841C51.3007 76.746 51.5031 78.0615 51.2845 79.4681C52.18 79.2915 53.1421 79.0909 54.005 78.9029C61.4312 77.2836 67.4829 75.3649 71.8542 73.1112C74.0402 71.9842 75.8172 70.7775 77.1391 69.3688C78.4608 67.9606 79.35 66.2465 79.35 64.3821C79.35 62.5181 78.4608 60.8039 77.1391 59.3952C75.8172 57.987 74.0402 56.7801 71.8544 55.6533C67.4834 53.3997 61.4317 51.4807 54.0054 49.8616C48.4669 48.6538 42.167 47.622 35.2802 46.8027L35.2797 46.8025ZM43.6217 74.7743C41.6496 74.7743 40.0959 76.3179 40.0959 78.2773C40.0959 80.2367 41.6496 81.7803 43.6217 81.7803C45.5938 81.7803 47.1475 80.2367 47.1475 78.2773C47.1475 76.3179 45.5938 74.7743 43.6217 74.7743ZM56.7847 96.9601C56.7847 98.8284 54.9043 100.697 53.0238 100.697C54.9043 100.697 56.7847 102.565 56.7847 104.433C56.7847 102.565 58.6651 100.697 60.5455 100.697C58.6651 100.697 56.7847 98.8284 56.7847 96.9601Z" fill="black"/>
</svg>
