<svg width="126" height="86" viewBox="0 0 126 86" fill="none" xmlns="http://www.w3.org/2000/svg">
<path d="M109.494 3.41162H16.4884C9.15046 3.41162 3.2019 9.33939 3.2019 16.6517V69.6118C3.2019 76.9241 9.15046 82.8518 16.4884 82.8518H109.494C116.832 82.8518 122.78 76.9241 122.78 69.6118V16.6517C122.78 9.33939 116.832 3.41162 109.494 3.41162Z" stroke="black" stroke-width="5"/>
<path d="M16.488 23.2717H36.4178M89.5637 62.9918H109.493" stroke="black" stroke-width="5" stroke-linecap="round"/>
<path d="M62.9913 56.3717C70.3292 56.3717 76.2778 50.4439 76.2778 43.1316C76.2778 35.8194 70.3292 29.8916 62.9913 29.8916C55.6534 29.8916 49.7048 35.8194 49.7048 43.1316C49.7048 50.4439 55.6534 56.3717 62.9913 56.3717Z" stroke="black" stroke-width="5"/>
</svg>
