<svg width="103" height="94" viewBox="0 0 103 94" fill="none" xmlns="http://www.w3.org/2000/svg">
<path d="M2.375 32.9019H100.659M25.6527 18.7422H25.6992M46.344 18.7422H46.3905M2.375 47.0615C2.375 25.9259 2.375 15.3534 9.57039 8.78801C16.7658 2.22266 28.3477 2.22266 51.5168 2.22266C74.6807 2.22266 86.2678 2.22266 93.4632 8.78801C100.659 15.3534 100.659 25.9212 100.659 47.0615C100.659 68.1971 100.659 78.7697 93.4632 85.335C86.2678 91.9004 74.6858 91.9004 51.5168 91.9004C28.3529 91.9004 16.7658 91.9004 9.57039 85.335C2.375 78.7697 2.375 68.2018 2.375 47.0615Z" stroke="black" stroke-width="3" stroke-linecap="round" stroke-linejoin="round"/>
<path d="M30.8257 51.7815L37.1727 56.7704C39.8367 58.8708 41.1713 59.9186 41.1713 61.2213C41.1713 62.5239 39.8367 63.5718 37.1727 65.6721L30.8257 70.661M51.517 70.661H72.2082" stroke="black" stroke-width="3" stroke-linecap="round" stroke-linejoin="round"/>
</svg>
